Coordinates
version=1
nRows=21
nColumns=33
inDegrees=yes

Units are S.I. units (second, meters, Newtons, ...)
Angles are in degrees.

endheader
time	ground_thorax_rot_x	ground_thorax_rot_y	ground_thorax_rot_z	ground_thorax_tx	ground_thorax_ty	ground_thorax_tz	clav_prot_r	clav_elev_r	scapula_abduction_r	scapula_elevation_r	scapula_upward_rot_r	scapula_winging_r	shoulder_elv_r	plane_of_elev_r	axial_rot_r	elbow_flexion_r	pro_sup_r	wrist_flex_r	wrist_dev_r	clav_prot_l	clav_elev_l	scapula_abduction_l	scapula_elevation_l	scapula_upward_rot_l	scapula_winging_l	shoulder_elv_l	plane_of_elev_l	axial_rot_l	elbow_flexion_l	pro_sup_l	wrist_flex_l	wrist_dev_l
      4.50000000	    -36.23389802	    -11.20457729	     10.71032510	    -84.43577621	    771.00117923	     10.50021889	      2.88616304	    -45.00000000	     45.00000000	    -45.00000000	     -7.55927849	  -3334.96700636	  -1377.32832425	     29.26617650	     67.88094462	   2170.27233631	     28.25319996	     18.01877754	     10.62097579	      4.91533652	     37.19145689	    -45.00000000	    -31.17324754	     10.29612416	   2980.22355850	  -6407.60571189	     13.38821360	    179.99999979	      3.12114895	   -142.72203740	      7.34325061	    -14.99788083
      4.51000000	    -36.58636961	    -11.66174236	     11.08689455	    -86.25745361	    771.65168526	     10.27969955	      3.19067231	    -45.00000000	     45.00000000	    -45.00000000	     -8.54084899	  -3334.81554736	  -1377.51767796	     29.16464696	     67.70720231	   2170.22211842	     28.07150330	     17.98742971	     10.61548941	      4.51760307	     37.47900949	    -45.00000000	    -31.97598906	     11.19699355	   2981.21557455	  -6407.66993916	     13.10221292	    179.99999979	      3.43348215	   -142.44837846	      7.34329935	    -14.88914687
      4.52000000	    -36.67265215	    -11.74212632	     11.35127182	    -88.16445326	    772.39085814	     10.06022204	      3.45939834	    -45.00000000	     45.00000000	    -45.00000000	     -9.24648816	  -3334.87157683	  -1377.30734693	     29.25386877	     67.44273414	   2170.33174523	     27.78344977	     18.02149113	     10.61434621	      4.05498885	     38.11787489	    -45.00000000	    -32.34183341	     12.55875175	   2982.26806546	  -6407.70943789	     13.01980007	    179.99999979	      3.69602851	   -142.10184210	      7.39043893	    -14.83002268
      4.53000000	    -36.81909641	    -11.71964136	     11.14255359	    -90.15837631	    773.21991606	      9.84329641	      3.44292810	    -45.00000000	     45.00000000	    -45.00000000	     -9.10963149	  -3334.79614315	  -1377.24013256	     29.29531950	     67.17637418	   2170.33027164	     27.54895058	     18.06630964	     10.67424750	      3.45654596	     37.89027300	    -45.00000000	    -32.76631096	     14.27884177	   2983.21622966	  -6407.58131459	     12.68960173	    179.99999979	      3.92587657	   -141.82992755	      7.57672808	    -14.90457240
      4.54000000	    -36.88963963	    -12.10849450	     11.49736089	    -92.24230722	    774.13826998	      9.62980150	      4.02805509	    -45.00000000	     45.00000000	    -45.00000000	    -10.31550787	  -3334.92066975	  -1377.12369469	     29.73409670	     67.00653086	   2170.43107829	     27.16838120	     18.05901349	     10.55696796	      2.71851399	     38.78334429	    -45.00000000	    -33.47646801	     16.78601134	   2985.08471123	  -6407.64743686	     12.48277079	    179.99999979	      4.88373322	   -141.25929323	      7.65731750	    -14.67349224
      4.55000000	    -37.71998348	    -12.61539139	      9.13733017	    -94.40302196	    775.14345486	      9.42225621	      5.17364622	    -45.00000000	     45.00000000	    -45.00000000	    -11.83334260	  -3332.29344226	  -1376.98324688	     30.21036173	     63.49777008	   2170.33568423	     24.89469603	     18.07922912	     10.93845513	     -5.87244031	     37.65718947	    -45.00000000	    -38.42563417	     45.00000000	   2999.57303725	  -6402.99111586	      9.59822391	    179.99999979	     10.02964872	   -132.63689072	      6.42726262	    -12.15762682
      4.56000000	    -37.83215684	    -12.21698833	      9.02773174	    -96.65260623	    776.23700413	      9.21702051	      4.47777537	    -45.00000000	     45.00000000	    -45.00000000	    -10.52450885	  -3332.80365629	  -1377.01494011	     29.91432268	     65.33864672	   2170.57901293	     25.42635396	     18.11099915	     10.70134342	     -5.68865081	     38.33107838	    -45.00000000	    -38.71656670	     45.00000000	   2999.44627230	  -6403.03637636	      9.65062806	    179.99999979	     10.01718746	   -132.01639800	      6.64191316	    -12.37488173
      4.57000000	    -37.90278553	    -12.01326906	      9.00008230	    -98.97959067	    777.41270565	      9.01638510	      4.33626983	    -45.00000000	     45.00000000	    -45.00000000	    -10.19757041	  -3332.93724984	  -1376.85025284	     29.82464867	     65.42380147	   2170.62389321	     25.60781516	     18.16631529	     10.70207866	     -5.71847337	     38.41417705	    -45.00000000	    -39.05453784	     45.00000000	   2999.53139242	  -6402.95963536	      9.67903212	    179.99999979	      9.88259873	   -131.81629903	      6.84532684	    -12.62864918
      4.58000000	    -37.97907969	    -12.24658488	      9.38052314	   -101.37622419	    778.66176865	      8.82025234	      4.78675747	    -45.00000000	     45.00000000	    -45.00000000	    -11.10743648	  -3333.23822607	  -1376.76837490	     30.18870895	     65.32450488	   2170.73663094	     25.69371814	     18.19866401	     10.48335939	     -5.87216021	     38.78481328	    -45.00000000	    -39.68174874	     45.00000000	   3000.20775683	  -6402.81577235	      9.87535624	    179.99999979	     10.00340411	   -131.81583588	      6.81432237	    -12.51734700
      4.59000000	    -38.10440085	    -12.02855807	      9.44740200	   -103.83987408	    779.97909436	      8.62797529	      4.73190056	    -45.00000000	     45.00000000	    -45.00000000	    -11.08697050	  -3333.46552642	  -1376.57459213	     30.14322306	     65.28025841	   2170.88951288	     25.75871712	     18.28249538	     10.44533926	     -5.88348539	     39.03165463	    -45.00000000	    -40.07172249	     45.00000000	   3000.30933618	  -6402.80981053	      9.98436259	    179.99999979	      9.97207662	   -132.06677268	      6.99809803	    -12.70946949
      4.60000000	    -38.20560434	    -11.88372601	      9.47547314	   -106.36509092	    781.35370905	      8.43920581	      4.62512146	    -45.00000000	     45.00000000	    -45.00000000	    -10.93160701	  -3333.58182140	  -1376.33093773	     30.04672341	     65.15775391	   2170.97974308	     25.81292961	     18.36567020	     10.46832839	     -5.80898676	     39.39171978	    -45.00000000	    -40.51118573	     45.00000000	   3000.49077878	  -6402.71551869	     10.05554548	    179.99999979	     10.03522181	   -132.47454362	      7.24916365	    -12.94179339
      4.61000000	    -38.27432353	    -11.78208745	      9.59208780	   -108.95143345	    782.77777246	      8.25324073	      4.66554485	    -45.00000000	     45.00000000	    -45.00000000	    -11.03269231	  -3333.75895217	  -1376.12432628	     30.06283402	     65.13884086	   2171.07530170	     25.85705879	     18.44191238	     10.41739262	     -5.82889921	     39.60211194	    -45.00000000	    -40.93783817	     45.00000000	   3000.71702712	  -6402.63186440	     10.13983681	    179.99999979	     10.07664399	   -132.98808209	      7.41648041	    -13.08437996
      4.62000000	    -38.37280755	    -11.72336944	      9.73278020	   -111.59054996	    784.24091182	      8.06979082	      4.73178249	    -45.00000000	     45.00000000	    -45.00000000	    -11.20404009	  -3333.94695652	  -1375.93511246	     30.08818089	     65.02116141	   2171.16029538	     25.88100087	     18.51267451	     10.35770185	     -5.81564205	     39.86409201	    -45.00000000	    -41.40186935	     45.00000000	   3000.93944599	  -6402.50127789	     10.22419477	    179.99999979	     10.13144430	   -133.58822964	      7.57222653	    -13.20478924
      4.63000000	    -38.47020228	    -11.86081794	     10.12033354	   -114.28032671	    785.73709976	      7.88876680	      5.20565281	    -45.00000000	     45.00000000	    -45.00000000	    -12.23395724	  -3334.33879604	  -1375.84147869	     30.50028504	     64.94774722	   2171.28272525	     25.88372168	     18.53722823	     10.11167503	     -5.81933183	     40.22570081	    -45.00000000	    -41.92736779	     45.00000000	   3001.32179667	  -6402.28298867	     10.26665243	    179.99999979	     10.23116353	   -134.38466312	      7.53116832	    -13.08256383
      4.64000000	    -38.52090398	    -11.84846912	     10.31366607	   -117.01373711	    787.26148266	      7.71055943	      5.45187644	    -45.00000000	     45.00000000	    -45.00000000	    -12.73237912	  -3334.61569126	  -1375.62095185	     30.72515832	     64.79677665	   2171.39352709	     25.88135743	     18.59927974	      9.96391439	     -5.82872521	     40.36543273	    -45.00000000	    -42.34543445	     45.00000000	   3001.48494326	  -6402.06517965	     10.24122231	    179.99999979	     10.34345100	   -135.24003956	      7.60600539	    -13.08677737
      4.65000000	    -38.63615172	    -11.49859401	     10.08569276	   -119.78480197	    788.81009133	      7.53638257	      5.03272492	    -45.00000000	     45.00000000	    -45.00000000	    -11.98827010	  -3334.56339805	  -1375.33407089	     30.39940922	     64.66410525	   2171.43938243	     25.92026185	     18.70428316	     10.11072712	     -5.76497645	     40.75422825	    -45.00000000	    -42.74670378	     45.00000000	   3001.61885763	  -6402.07681962	     10.35289285	    179.99999979	     10.42967103	   -135.93415164	      7.96688194	    -13.39344514
      4.66000000	    -38.73628611	    -11.45461463	     10.31270726	   -122.58384918	    790.37532649	      7.36818841	      5.17356598	    -45.00000000	     45.00000000	    -45.00000000	    -12.29962763	  -3334.82587849	  -1375.10938611	     30.43374879	     64.69223153	   2171.58484238	     25.90661419	     18.78446562	      9.99924017	     -5.73285340	     41.00661756	    -45.00000000	    -43.16429429	     45.00000000	   3001.79156166	  -6401.92901060	     10.41670665	    179.99999979	     10.53914965	   -136.68571111	      8.09257496	    -13.43917889
      4.67000000	    -38.82318179	    -11.36369224	     10.44193779	   -125.40623398	    791.95616592	      7.20719771	      5.30488320	    -45.00000000	     45.00000000	    -45.00000000	    -12.61082056	  -3335.03400974	  -1374.93140498	     30.49702203	     64.53811434	   2171.67727665	     25.86536160	     18.85420385	      9.92337606	     -5.69928889	     41.22229723	    -45.00000000	    -43.52481618	     45.00000000	   3001.97318049	  -6401.74475253	     10.48061540	    179.99999979	     10.60580969	   -137.43400086	      8.21957381	    -13.49137796
      4.68000000	    -38.83650153	    -11.68083663	     10.95596276	   -128.24573899	    793.54881576	      7.05424483	      6.01370857	    -45.00000000	     45.00000000	    -45.00000000	    -13.95073518	  -3335.40976232	  -1374.82769412	     31.01512479	     64.32126983	   2171.66655339	     25.73397160	     18.84032534	      9.61933407	     -5.74713956	     41.27649615	    -45.00000000	    -43.99265580	     45.00000000	   3002.30740536	  -6401.30671953	     10.42813337	    179.99999979	     10.78953148	   -138.39918064	      8.11067719	    -13.25140132
      4.69000000	    -38.96861854	    -11.27011952	     10.76807934	   -131.09491310	    795.15291976	      6.90910665	      5.62795995	    -45.00000000	     45.00000000	    -45.00000000	    -13.38539623	  -3335.50381167	  -1374.52024816	     30.75947706	     64.27362170	   2171.79238544	     25.67240523	     18.95327433	      9.73488382	     -5.69737514	     41.73582617	    -45.00000000	    -44.34326285	     45.00000000	   3002.40339071	  -6401.39932078	     10.56595603	    179.99999979	     10.82857067	   -139.08764055	      8.40250798	    -13.46632950
      4.70000000	    -39.05481820	    -11.22646787	     10.84703290	   -133.94846494	    796.76488406	      6.77135428	      5.69926108	    -45.00000000	     45.00000000	    -45.00000000	    -13.56159678	  -3335.65422454	  -1374.34735018	     30.76632941	     64.21670409	   2171.91735889	     25.55927620	     19.03316739	      9.67779877	     -5.68961856	     41.94344865	    -45.00000000	    -44.75539839	     45.00000000	   3002.62703765	  -6401.17872839	     10.59105580	    179.99999979	     10.96946116	   -139.73139411	      8.54616397	    -13.50365532
